Coordinates
version=1
nRows=32
nColumns=12
inDegrees=yes

Units are S.I. units (second, meters, Newtons, ...)
Angles are in degrees

endheader
time	SC_y	SC_z	SC_x	AC_y	AC_z	AC_x	GH_y	GH_z	GH_yy	EL_x	PS_y
       0.0               -48.5         -1.505          51.38          33.96         -1.492         -18.71         -89.32          72.93         -35.26          123.3           12.9
  0.009717               -48.5         -1.504          51.38          33.96         -1.492          -18.7         -89.29          72.92         -35.24          123.3          12.91
   0.01943               -48.5         -1.503          51.38          33.97         -1.491          -18.7         -89.26          72.91         -35.22          123.3          12.91
   0.02915               -48.5         -1.502          51.38          33.97         -1.491         -18.69         -89.23           72.9          -35.2          123.3          12.91
   0.03887               -48.5         -1.501          51.37          33.98          -1.49         -18.69         -89.19          72.89         -35.18          123.3          12.92
   0.04858               -48.5           -1.5          51.37          33.98         -1.489         -18.68         -89.16          72.88         -35.16          123.3          12.92
    0.0583               -48.5         -1.499          51.37          33.99         -1.488         -18.68         -89.12          72.86         -35.14          123.3          12.93
   0.06802               -48.5         -1.497          51.36          33.99         -1.488         -18.67         -89.08          72.85         -35.11          123.2          12.93
   0.07774               -48.5         -1.496          51.36           34.0         -1.487         -18.67         -89.04          72.84         -35.09          123.2          12.94
   0.08745               -48.5         -1.494          51.36           34.0         -1.486         -18.66         -88.99          72.82         -35.06          123.2          12.94
   0.09717               -48.5         -1.493          51.35          34.01         -1.485         -18.65         -88.94           72.8         -35.03          123.2          12.95
    0.1069               -48.5         -1.491          51.35          34.02         -1.484         -18.64         -88.88          72.79          -35.0          123.1          12.96
    0.1166               -48.5         -1.489          51.34          34.02         -1.483         -18.63         -88.82          72.77         -34.96          123.1          12.96
    0.1263               -48.5         -1.487          51.34          34.03         -1.481         -18.62         -88.76          72.75         -34.92          123.1          12.97
     0.136               -48.5         -1.485          51.33          34.04          -1.48         -18.61         -88.69          72.73         -34.88          123.1          12.98
    0.1458               -48.5         -1.483          51.32          34.05         -1.479          -18.6         -88.62           72.7         -34.84          123.0          12.99
    0.1555               -48.5          -1.48          51.32          34.06         -1.477         -18.59         -88.54          72.68         -34.79          123.0           13.0
    0.1652               -48.5         -1.477          51.31          34.07         -1.475         -18.58         -88.45          72.65         -34.74          123.0          13.01
    0.1749               -48.5         -1.474           51.3          34.08         -1.473         -18.56         -88.35          72.62         -34.68          122.9          13.02
    0.1846               -48.5         -1.471          51.29           34.1         -1.471         -18.55         -88.25          72.59         -34.62          122.9          13.03
    0.1943               -48.5         -1.467          51.28          34.11         -1.469         -18.53         -88.13          72.55         -34.55          122.8          13.05
    0.2041               -48.5         -1.463          51.27          34.13         -1.466         -18.51         -88.01          72.51         -34.47          122.8          13.06
    0.2138               -48.5         -1.459          51.26          34.15         -1.464         -18.49         -87.87          72.46         -34.39          122.7          13.08
    0.2235               -48.5         -1.454          51.24          34.17         -1.461         -18.47         -87.71          72.41         -34.29          122.6           13.1
    0.2332               -48.5         -1.448          51.23          34.19         -1.457         -18.44         -87.54          72.36         -34.19          122.6          13.12
    0.2429               -48.5         -1.442          51.21          34.21         -1.453         -18.41         -87.34           72.3         -34.07          122.5          13.15
    0.2526              -48.49         -1.435          51.19          34.24         -1.449         -18.38         -87.13          72.23         -33.94          122.4          13.17
    0.2624              -48.49         -1.427          51.17          34.27         -1.444         -18.34         -86.88          72.15          -33.8          122.3           13.2
    0.2721              -48.49         -1.419          51.15          34.31         -1.439          -18.3         -86.61          72.06         -33.63          122.2          13.24
    0.2818              -48.49         -1.409          51.12          34.35         -1.433         -18.26          -86.3          71.97         -33.45          122.0          13.27
    0.2915              -48.49         -1.397          51.09          34.39         -1.426          -18.2         -85.94          71.85         -33.23          121.9          13.32
    0.3012              -48.49         -1.384          51.05          34.45         -1.418         -18.14         -85.53          71.72         -32.99          121.7          13.37
